<?xml version="1.0" standalone="no"?>
<!DOCTYPE svg PUBLIC "-//W3C//DTD SVG 20010904//EN"
 "http://www.w3.org/TR/2001/REC-SVG-20010904/DTD/svg10.dtd">
<svg version="1.0" xmlns="http://www.w3.org/2000/svg"
 width="700.000000pt" height="700.000000pt" viewBox="0 0 700.000000 700.000000"
 preserveAspectRatio="xMidYMid meet">
<metadata>
Created by potrace 1.14, written by Peter Selinger 2001-2017
</metadata>
<g transform="translate(0.000000,700.000000) scale(0.100000,-0.100000)"
fill="#000000" stroke="none">
<path d="M3288 6385 c-1 -1 -48 -6 -103 -9 -55 -3 -111 -8 -125 -10 -14 -3
-50 -7 -80 -11 -30 -3 -93 -12 -140 -21 -47 -8 -101 -17 -120 -20 -98 -15
-459 -112 -535 -143 -11 -5 -81 -32 -155 -61 -222 -86 -452 -205 -665 -346
-145 -96 -148 -99 -235 -169 -279 -224 -476 -434 -659 -705 -107 -159 -173
-278 -261 -475 -70 -156 -149 -429 -176 -605 -3 -19 -7 -46 -9 -60 -21 -138
-27 -504 -11 -635 28 -239 51 -325 108 -411 97 -146 194 -213 314 -219 130 -6
255 45 661 274 598 335 829 448 972 475 225 43 214 -120 -39 -560 -60 -104
-136 -229 -185 -304 -289 -446 -503 -828 -531 -945 -15 -65 -15 -158 -1 -221
15 -62 82 -177 135 -232 56 -57 384 -226 612 -315 184 -71 486 -162 610 -182
19 -3 55 -10 80 -15 64 -14 157 -29 215 -35 28 -4 61 -8 75 -10 159 -26 825
-26 930 0 8 2 39 7 69 10 30 4 63 9 75 11 11 2 38 6 61 9 58 9 289 56 298 62
4 2 20 6 35 9 59 10 378 113 447 144 11 5 65 27 120 50 577 240 1127 686 1455
1180 35 52 72 108 82 123 51 74 232 458 243 517 1 3 12 39 25 80 13 41 24 80
26 85 1 6 11 46 22 90 11 44 26 114 32 155 7 41 14 83 16 94 27 145 26 525 -2
720 -85 597 -380 1159 -845 1613 -451 440 -1074 775 -1709 918 -85 19 -276 55
-320 60 -30 3 -62 8 -70 10 -8 2 -46 7 -85 10 -38 4 -86 9 -105 11 -44 5 -547
14 -552 9z m31 -4027 c226 -46 423 -143 564 -276 198 -188 237 -411 101 -571
-159 -188 -597 -231 -929 -92 -187 79 -337 185 -421 297 -16 21 -31 41 -34 44
-16 14 -60 124 -68 168 -21 116 8 204 97 293 73 73 157 115 286 143 99 21 284
19 404 -6z"/>
</g>
</svg>
